<svg width="62" height="62" viewBox="0 0 62 62" fill="none" xmlns="http://www.w3.org/2000/svg">
<path fill-rule="evenodd" clip-rule="evenodd" d="M0 31V62H31H62V31V0H31H0V31ZM58.28 31V58.28H31H3.72V31V3.72H31H58.28V31ZM8.06 31V47.74H13.4441C24.2197 47.74 27.7283 45.7213 37.298 34.0169C40.0489 30.6528 42.408 27.9 42.5401 27.9C42.6721 27.9 42.78 29.0228 42.78 30.3955C42.78 32.408 42.5103 32.9958 41.385 33.436C40.1586 33.9152 35.34 39.0854 35.34 39.9224C35.34 40.096 36.9439 40.3217 38.905 40.424L42.47 40.61L42.656 44.175L42.842 47.74H46.841H50.84V44.02V40.3H53.01H55.18V36.89V33.48H53.01H50.84V23.87V14.26H47.2155H43.5916L36.2105 23.0795C24.8756 36.6253 23.1551 38.3371 19.8952 39.3111C18.3303 39.7786 16.8324 39.9615 16.567 39.7166C16.301 39.4717 16.1615 35.3877 16.257 30.641L16.43 22.01L19.0941 22.0658C22.1941 22.1303 24.4361 23.5637 26.6166 26.8751L28.1226 29.1629L30.7737 26.2068C32.2313 24.5805 33.4372 22.927 33.4521 22.5327C33.4676 22.1377 32.1005 20.5747 30.4147 19.0588C26.4684 15.5105 22.2072 14.26 14.0641 14.26H8.06V31Z" fill="url(#paint0_linear_528_2352)"/>
<defs>
<linearGradient id="paint0_linear_528_2352" x1="0" y1="31" x2="62.0042" y2="31.8538" gradientUnits="userSpaceOnUse">
<stop stop-color="#0055A8"/>
<stop offset="1" stop-color="#00E2EA"/>
</linearGradient>
</defs>
</svg>
