<svg width="181" height="73" viewBox="0 0 181 73" fill="none" xmlns="http://www.w3.org/2000/svg">
<path fill-rule="evenodd" clip-rule="evenodd" d="M74 1.5C74 2.325 74.45 3 75 3C75.55 3 76 4.35 76 6C76 8 76.5 9 77.5 9C78.5 9 79 8 79 6C79 4 79.5 3 80.5 3C81.325 3 82 2.325 82 1.5C82 0.417 80.889 0 78 0C75.111 0 74 0.417 74 1.5ZM86 4.5C86 7.833 86.389 9 87.5 9C88.325 9 89 8.325 89 7.5C89 6.675 89.675 6 90.5 6C91.325 6 92 6.675 92 7.5C92 8.325 92.701 9 93.557 9C94.768 9 95.046 8.07 94.807 4.828C94.478 0.352003 92.598 -1.395 91.721 1.959C91.034 4.585 89 4.616 89 2C89 0.889 88.333 0 87.5 0C86.389 0 86 1.167 86 4.5ZM99 4.5C99 8.976 99.019 9 102.5 9C106.387 9 107.268 7.383 103.75 6.706L101.5 6.272L103.75 6.136C104.987 6.061 106 5.581 106 5.07C106 4.558 104.987 3.944 103.75 3.706L101.5 3.272L103.75 3.136C107.637 2.901 106.481 0 102.5 0C99.019 0 99 0.0240002 99 4.5ZM0.900048 3.5C0.845048 3.775 0.800049 5.125 0.800049 6.5C0.800049 7.875 0.845048 22.897 0.900048 39.882L1.00005 70.765L19.161 70.932C37.605 71.101 39.6 70.727 38.3 67.341C37.899 66.295 34.176 66 21.393 66H5.00005V36.5V7H35C64.333 7 65 6.956 65 5C65 3.042 64.333 3 33 3C15.4 3 0.955048 3.225 0.900048 3.5ZM116 5C116 6.956 116.667 7 146 7H176V36.5V66H158.43H140.861L141.18 68.25C141.499 70.493 141.558 70.5 160.5 70.5H179.5L179.763 36.75L180.027 3H148.013C116.667 3 116 3.042 116 5ZM130.5 22.412C125.012 24.851 121 30.876 121 36.679C121 40.663 124.865 46.556 129.004 48.882C139.295 54.666 153 47.308 153 36C153 25.307 140.699 17.878 130.5 22.412ZM28 36V50L36.75 49.998C46.521 49.997 50.9431 48.43 54.3711 43.754C56.9561 40.228 57.0951 32.321 54.6381 28.57C51.2961 23.469 47.426 22.008 37.25 22.004L28 22V36ZM59 36V50H71.5H84V46V42H76.5C72.167 42 69 41.578 69 41C69 40.422 72.167 40 76.5 40H84V36V32H76.5C72.167 32 69 31.578 69 31C69 30.422 72.167 30 76.5 30H84V26V22H71.5H59V36ZM86 36V50H90.952H95.905L96.202 43.811L96.5 37.623L99.389 41.999C102.576 46.829 102.385 46.88 107.198 39.946C108.876 37.528 108.896 37.572 108.948 43.75L109 50H114H119V36V22H113.595C108.246 22 108.163 22.047 105.553 26.5C104.102 28.975 102.752 31 102.553 31C102.353 31 101.003 28.975 99.553 26.5C96.938 22.038 96.869 22 91.458 22H86V36ZM44.744 32.203C46.813 33.92 46.251 38.711 43.7771 40.443C39.2621 43.606 38 42.613 38 35.892V29.783L40.744 30.472C42.254 30.851 44.054 31.63 44.744 32.203ZM141.969 33.25C143.344 35.719 143.344 36.281 141.969 38.75C139.888 42.488 134.862 43.069 132.596 39.834C131.718 38.58 131 36.855 131 36C131 35.145 131.718 33.42 132.596 32.166C134.862 28.931 139.888 29.512 141.969 33.25ZM48.0881 65.394C46.4981 67.31 47.0371 71.006 49.0951 72.295C50.9891 73.481 56.3471 72.37 55.4821 70.971C55.1521 70.437 53.751 70 52.368 70C50.509 70 49.943 69.543 50.195 68.25C50.398 67.214 51.4401 66.5 52.7491 66.5C56.1731 66.5 55.8881 64.538 52.4151 64.199C50.5781 64.02 48.8271 64.503 48.0881 65.394ZM59.9801 66.038C59.3801 67.159 59.1691 68.958 59.5111 70.035C60.2501 72.363 64.65 73.708 66.905 72.295C68.941 71.02 69.508 67.317 67.954 65.445C66.142 63.262 61.2721 63.624 59.9801 66.038ZM73 68.5C73 71.833 73.389 73 74.5 73C75.384 73 76.006 72.077 76.015 70.75C76.027 69.08 76.256 68.855 76.904 69.878C77.384 70.636 78.277 70.947 78.888 70.569C79.522 70.177 80 70.552 80 71.441C80 72.298 80.675 73 81.5 73C82.611 73 83 71.833 83 68.5C83 63.702 81.044 62.317 79.117 65.75C78.181 67.417 78.102 67.417 77.46 65.75C77.089 64.787 75.934 64 74.893 64C73.316 64 73 64.751 73 68.5ZM88 68.437C88 70.946 88.338 72.984 88.75 72.964C89.162 72.944 90.782 71.879 92.349 70.598C96.123 67.511 95.622 64.61 91.242 64.187C88.014 63.875 88 63.893 88 68.437ZM100.2 66.75C99.653 68.262 98.919 70.201 98.569 71.058C98.043 72.346 98.807 72.615 102.986 72.615C105.765 72.615 107.915 72.364 107.764 72.058C107.613 71.751 106.839 69.813 106.044 67.75C104.313 63.26 101.63 62.801 100.2 66.75ZM112 68.5C112 71.833 112.389 73 113.5 73C114.325 73 115 72.255 115 71.345C115 69.805 115.127 69.805 116.829 71.345C119.886 74.112 121 73.352 121 68.5C121 65.167 120.611 64 119.5 64C118.675 64 118 64.745 118 65.655C118 67.195 117.873 67.195 116.171 65.655C113.114 62.888 112 63.648 112 68.5ZM125.172 64.75C125.358 65.162 126.161 67.188 126.956 69.25C127.751 71.313 128.649 73 128.951 72.999C129.253 72.999 130.438 70.974 131.584 68.499C133.511 64.34 133.536 64 131.918 64C130.955 64 129.904 64.563 129.583 65.25C129.117 66.25 128.883 66.25 128.417 65.25C128.096 64.563 127.158 64 126.333 64C125.508 64 124.986 64.338 125.172 64.75ZM65.823 68.333C66.041 69.457 65.471 70 64.073 70C62.933 70 62 69.4 62 68.667C62 65.604 65.239 65.321 65.823 68.333Z" fill="white"/>
</svg>
